<mxfile host="65bd71144e">
    <diagram id="goARCCnoRJL7XfysU6kj" name="Page-1">
        <mxGraphModel dx="1386" dy="-308" grid="1" gridSize="10" guides="1" tooltips="1" connect="1" arrows="1" fold="1" page="1" pageScale="1" pageWidth="850" pageHeight="1100" math="0" shadow="0">
            <root>
                <mxCell id="0"/>
                <mxCell id="1" parent="0"/>
                <mxCell id="35" value="" style="rounded=0;whiteSpace=wrap;html=1;" parent="1" vertex="1">
                    <mxGeometry x="10" y="1110" width="830" height="630" as="geometry"/>
                </mxCell>
                <mxCell id="37" value="Wine" style="text;strokeColor=none;fillColor=none;spacingLeft=4;spacingRight=4;overflow=hidden;rotatable=0;points=[[0,0.5],[1,0.5]];portConstraint=eastwest;fontSize=12;whiteSpace=wrap;html=1;" parent="1" vertex="1">
                    <mxGeometry x="60" y="1150" width="40" height="30" as="geometry"/>
                </mxCell>
                <mxCell id="38" value="&lt;u&gt;Wine_ID&lt;/u&gt;" style="whiteSpace=wrap;html=1;align=center;" parent="1" vertex="1">
                    <mxGeometry x="60" y="1180" width="80" height="30" as="geometry"/>
                </mxCell>
                <mxCell id="39" value="Category" style="whiteSpace=wrap;html=1;align=center;" parent="1" vertex="1">
                    <mxGeometry x="700" y="1180" width="80" height="30" as="geometry"/>
                </mxCell>
                <mxCell id="40" value="Available" style="whiteSpace=wrap;html=1;align=center;" parent="1" vertex="1">
                    <mxGeometry x="620" y="1180" width="80" height="30" as="geometry"/>
                </mxCell>
                <mxCell id="41" value="Price" style="whiteSpace=wrap;html=1;align=center;" parent="1" vertex="1">
                    <mxGeometry x="540" y="1180" width="80" height="30" as="geometry"/>
                </mxCell>
                <mxCell id="42" value="Image" style="whiteSpace=wrap;html=1;align=center;" parent="1" vertex="1">
                    <mxGeometry x="460" y="1180" width="80" height="30" as="geometry"/>
                </mxCell>
                <mxCell id="43" value="Type" style="whiteSpace=wrap;html=1;align=center;" parent="1" vertex="1">
                    <mxGeometry x="380" y="1180" width="80" height="30" as="geometry"/>
                </mxCell>
                <mxCell id="44" value="Year" style="whiteSpace=wrap;html=1;align=center;" parent="1" vertex="1">
                    <mxGeometry x="300" y="1180" width="80" height="30" as="geometry"/>
                </mxCell>
                <mxCell id="45" value="Name" style="whiteSpace=wrap;html=1;align=center;" parent="1" vertex="1">
                    <mxGeometry x="220" y="1180" width="80" height="30" as="geometry"/>
                </mxCell>
                <mxCell id="46" value="Winery_ID" style="whiteSpace=wrap;html=1;align=center;" parent="1" vertex="1">
                    <mxGeometry x="140" y="1180" width="80" height="30" as="geometry"/>
                </mxCell>
                <mxCell id="47" value="Winery" style="text;strokeColor=none;fillColor=none;spacingLeft=4;spacingRight=4;overflow=hidden;rotatable=0;points=[[0,0.5],[1,0.5]];portConstraint=eastwest;fontSize=12;whiteSpace=wrap;html=1;" parent="1" vertex="1">
                    <mxGeometry x="60" y="1260" width="70" height="30" as="geometry"/>
                </mxCell>
                <mxCell id="48" style="edgeStyle=orthogonalEdgeStyle;rounded=0;orthogonalLoop=1;jettySize=auto;html=1;entryX=0.5;entryY=1;entryDx=0;entryDy=0;" parent="1" source="49" target="46" edge="1">
                    <mxGeometry relative="1" as="geometry">
                        <Array as="points">
                            <mxPoint x="85" y="1340"/>
                            <mxPoint x="45" y="1340"/>
                            <mxPoint x="45" y="1250"/>
                            <mxPoint x="180" y="1250"/>
                        </Array>
                    </mxGeometry>
                </mxCell>
                <mxCell id="49" value="&lt;u&gt;Winery_ID&lt;/u&gt;" style="whiteSpace=wrap;html=1;align=center;" parent="1" vertex="1">
                    <mxGeometry x="60" y="1290" width="80" height="30" as="geometry"/>
                </mxCell>
                <mxCell id="50" value="Image" style="whiteSpace=wrap;html=1;align=center;" parent="1" vertex="1">
                    <mxGeometry x="380" y="1290" width="80" height="30" as="geometry"/>
                </mxCell>
                <mxCell id="51" value="Location_ID" style="whiteSpace=wrap;html=1;align=center;" parent="1" vertex="1">
                    <mxGeometry x="300" y="1290" width="80" height="30" as="geometry"/>
                </mxCell>
                <mxCell id="52" value="Admin_ID" style="whiteSpace=wrap;html=1;align=center;" parent="1" vertex="1">
                    <mxGeometry x="220" y="1290" width="80" height="30" as="geometry"/>
                </mxCell>
                <mxCell id="53" value="Name" style="whiteSpace=wrap;html=1;align=center;" parent="1" vertex="1">
                    <mxGeometry x="140" y="1290" width="80" height="30" as="geometry"/>
                </mxCell>
                <mxCell id="54" value="Locations" style="text;strokeColor=none;fillColor=none;spacingLeft=4;spacingRight=4;overflow=hidden;rotatable=0;points=[[0,0.5],[1,0.5]];portConstraint=eastwest;fontSize=12;whiteSpace=wrap;html=1;" parent="1" vertex="1">
                    <mxGeometry x="60" y="1380" width="100" height="30" as="geometry"/>
                </mxCell>
                <mxCell id="55" style="edgeStyle=orthogonalEdgeStyle;rounded=0;orthogonalLoop=1;jettySize=auto;html=1;entryX=0.5;entryY=1;entryDx=0;entryDy=0;" parent="1" source="56" target="51" edge="1">
                    <mxGeometry relative="1" as="geometry">
                        <Array as="points">
                            <mxPoint x="100" y="1460"/>
                            <mxPoint x="580" y="1460"/>
                            <mxPoint x="580" y="1380"/>
                            <mxPoint x="340" y="1380"/>
                        </Array>
                    </mxGeometry>
                </mxCell>
                <mxCell id="56" value="&lt;u&gt;Location_ID&lt;/u&gt;" style="whiteSpace=wrap;html=1;align=center;" parent="1" vertex="1">
                    <mxGeometry x="60" y="1410" width="80" height="30" as="geometry"/>
                </mxCell>
                <mxCell id="57" value="Street_Number" style="whiteSpace=wrap;html=1;align=center;" parent="1" vertex="1">
                    <mxGeometry x="460" y="1410" width="90" height="30" as="geometry"/>
                </mxCell>
                <mxCell id="58" value="Street_Name" style="whiteSpace=wrap;html=1;align=center;" parent="1" vertex="1">
                    <mxGeometry x="380" y="1410" width="80" height="30" as="geometry"/>
                </mxCell>
                <mxCell id="59" value="Postal_Code" style="whiteSpace=wrap;html=1;align=center;" parent="1" vertex="1">
                    <mxGeometry x="300" y="1410" width="80" height="30" as="geometry"/>
                </mxCell>
                <mxCell id="60" value="Region" style="whiteSpace=wrap;html=1;align=center;" parent="1" vertex="1">
                    <mxGeometry x="220" y="1410" width="80" height="30" as="geometry"/>
                </mxCell>
                <mxCell id="61" value="Country" style="whiteSpace=wrap;html=1;align=center;" parent="1" vertex="1">
                    <mxGeometry x="140" y="1410" width="80" height="30" as="geometry"/>
                </mxCell>
                <mxCell id="62" value="Users" style="text;strokeColor=none;fillColor=none;spacingLeft=4;spacingRight=4;overflow=hidden;rotatable=0;points=[[0,0.5],[1,0.5]];portConstraint=eastwest;fontSize=12;whiteSpace=wrap;html=1;" parent="1" vertex="1">
                    <mxGeometry x="60" y="1500" width="110" height="30" as="geometry"/>
                </mxCell>
                <mxCell id="63" style="edgeStyle=orthogonalEdgeStyle;rounded=0;orthogonalLoop=1;jettySize=auto;html=1;entryX=0.5;entryY=1;entryDx=0;entryDy=0;" parent="1" source="64" target="52" edge="1">
                    <mxGeometry relative="1" as="geometry">
                        <Array as="points">
                            <mxPoint x="100" y="1580"/>
                            <mxPoint x="45" y="1580"/>
                            <mxPoint x="45" y="1380"/>
                            <mxPoint x="260" y="1380"/>
                        </Array>
                    </mxGeometry>
                </mxCell>
                <mxCell id="64" value="&lt;u&gt;User_ID&lt;/u&gt;" style="whiteSpace=wrap;html=1;align=center;" parent="1" vertex="1">
                    <mxGeometry x="60" y="1530" width="80" height="30" as="geometry"/>
                </mxCell>
                <mxCell id="65" value="Is_Expert" style="whiteSpace=wrap;html=1;align=center;" parent="1" vertex="1">
                    <mxGeometry x="300" y="1530" width="80" height="30" as="geometry"/>
                </mxCell>
                <mxCell id="66" value="Last_Name" style="whiteSpace=wrap;html=1;align=center;" parent="1" vertex="1">
                    <mxGeometry x="220" y="1530" width="80" height="30" as="geometry"/>
                </mxCell>
                <mxCell id="67" value="First_Name" style="whiteSpace=wrap;html=1;align=center;" parent="1" vertex="1">
                    <mxGeometry x="140" y="1530" width="80" height="30" as="geometry"/>
                </mxCell>
                <mxCell id="68" value="Ratings" style="text;strokeColor=none;fillColor=none;spacingLeft=4;spacingRight=4;overflow=hidden;rotatable=0;points=[[0,0.5],[1,0.5]];portConstraint=eastwest;fontSize=12;whiteSpace=wrap;html=1;" parent="1" vertex="1">
                    <mxGeometry x="60" y="1620" width="100" height="30" as="geometry"/>
                </mxCell>
                <mxCell id="69" style="edgeStyle=orthogonalEdgeStyle;rounded=0;orthogonalLoop=1;jettySize=auto;html=1;entryX=0.5;entryY=1;entryDx=0;entryDy=0;" parent="1" source="70" target="38" edge="1">
                    <mxGeometry relative="1" as="geometry">
                        <Array as="points">
                            <mxPoint x="100" y="1700"/>
                            <mxPoint x="25" y="1700"/>
                            <mxPoint x="25" y="1230"/>
                            <mxPoint x="100" y="1230"/>
                        </Array>
                    </mxGeometry>
                </mxCell>
                <mxCell id="70" value="&lt;u&gt;Wine_ID&lt;/u&gt;" style="whiteSpace=wrap;html=1;align=center;" parent="1" vertex="1">
                    <mxGeometry x="60" y="1650" width="80" height="30" as="geometry"/>
                </mxCell>
                <mxCell id="71" value="Rating" style="whiteSpace=wrap;html=1;align=center;" parent="1" vertex="1">
                    <mxGeometry x="220" y="1650" width="80" height="30" as="geometry"/>
                </mxCell>
                <mxCell id="72" style="edgeStyle=orthogonalEdgeStyle;rounded=0;orthogonalLoop=1;jettySize=auto;html=1;entryX=0.75;entryY=1;entryDx=0;entryDy=0;" parent="1" source="73" target="64" edge="1">
                    <mxGeometry relative="1" as="geometry"/>
                </mxCell>
                <mxCell id="73" value="&lt;u&gt;User_ID&lt;/u&gt;" style="whiteSpace=wrap;html=1;align=center;" parent="1" vertex="1">
                    <mxGeometry x="140" y="1650" width="80" height="30" as="geometry"/>
                </mxCell>
            </root>
        </mxGraphModel>
    </diagram>
</mxfile>